<svg xmlns="http://www.w3.org/2000/svg" width="512" height="512" fill="none"><path fill="#fff" d="M427.62 214.74c-11.085 0-20.101 9.016-20.101 20.098v58.921c0 4.701-2.196 8.843-5.575 11.604-2.857-7.626-10.16-13.096-18.771-13.096h-1.494v-172.48c0-19.231-15.647-34.875-34.878-34.875h-61.73V60.72h11.973c11.082 0 20.098-9.016 20.098-20.098V20.667c0-11.082-9.016-20.098-20.098-20.098h-82.088c-11.082 0-20.098 9.016-20.098 20.098V40.62c0 11.082 9.016 20.098 20.098 20.098h11.973v24.194H165.2c-19.231 0-34.878 15.645-34.878 34.875v172.48h-1.494c-8.624 0-15.934 5.486-18.782 13.13-3.379-2.769-5.565-6.933-5.565-11.636v-58.923c0-11.082-9.016-20.098-20.1-20.098-11.083 0-20.099 9.016-20.099 20.098v58.921c0 26.863 19.26 49.256 44.683 54.246 1.182 9.963 9.585 17.744 19.863 17.744h56.037v46.662h-5.121c-10.588 0-19.202 8.614-19.202 19.202 0 10.588 8.614 19.202 19.202 19.202h36.819v24.495h-9.133a73.146 73.146 0 0 0-32.363 7.595l-35.991 17.882H110.99a5.321 5.321 0 0 0 0 10.642h290.021a5.321 5.321 0 0 0 0-10.642h-28.085l-35.991-17.882a73.146 73.146 0 0 0-32.363-7.595h-9.133v-24.495h36.819c10.588 0 19.202-8.614 19.202-19.202 0-10.588-8.614-19.202-19.202-19.202h-5.121V365.75h56.037c10.287 0 18.694-7.793 19.866-17.768 25.421-4.988 44.681-27.359 44.681-54.22v-58.923c-.002-11.082-9.018-20.099-20.101-20.099zM74.924 293.76v-58.921c0-5.215 4.241-9.456 9.456-9.456s9.458 4.241 9.458 9.456v58.923c0 10.306 6.122 19.124 14.889 23.232v20.05c-19.389-4.882-33.803-22.401-33.803-43.284zM205.5 40.62V20.667c0-5.215 4.241-9.456 9.456-9.456h82.088c5.215 0 9.456 4.241 9.456 9.456V40.62c0 5.215-4.241 9.456-9.456 9.456h-82.088c-5.215 0-9.456-4.24-9.456-9.456zm32.072 20.1h36.855v24.193h-36.855V60.72zm-96.607 59.068c0-13.361 10.872-24.232 24.235-24.232h181.601c13.363 0 24.235 10.872 24.235 24.232v172.48H140.965v-172.48zm86.24 292.624v-46.004h57.59v46.004h-57.59zm-31.698-46.004h21.055v46.004h-21.055v-46.004zM332.2 492.437l16.806 8.351H162.994l16.806-8.351a62.452 62.452 0 0 1 27.629-6.483h97.143a62.45 62.45 0 0 1 27.628 6.483zm-47.405-17.126h-57.59v-24.495h57.59v24.495zm56.021-43.697c0 4.719-3.84 8.559-8.559 8.559H179.743c-4.719 0-8.559-3.84-8.559-8.559 0-4.719 3.84-8.559 8.559-8.559h152.515c4.718 0 8.558 3.84 8.558 8.559zm-45.378-19.202v-46.004h21.055v46.004h-21.055zm97.193-66.76c0 5.215-4.243 9.456-9.458 9.456H128.828c-5.215 0-9.458-4.241-9.458-9.456v-33.283c0-5.215 4.243-9.458 9.458-9.458h254.345c5.215 0 9.458 4.243 9.458 9.458v33.283zm44.445-51.89c0 20.883-14.414 38.414-33.802 43.298v-20.107c8.757-4.112 14.889-12.892 14.889-23.194v-58.921c0-5.215 4.243-9.456 9.458-9.456s9.456 4.241 9.456 9.456l-.001 58.924z"/><path fill="#fff" d="M326.533 131.343H185.467a5.321 5.321 0 0 0 0 10.642h141.066a5.322 5.322 0 0 0 0-10.642zm0 38.165H185.467a5.321 5.321 0 0 0 0 10.642h141.066a5.322 5.322 0 0 0 0-10.642zm0 38.165H185.467a5.321 5.321 0 0 0 0 10.642h141.066a5.322 5.322 0 0 0 0-10.642zm0 38.165H185.467a5.321 5.321 0 0 0 0 10.643h141.066a5.322 5.322 0 0 0 0-10.643z"/></svg>