<svg xmlns="http://www.w3.org/2000/svg" width="512" height="512" fill="none"><path fill="#fff" d="M510.39 419.494c-1.886-3.292-5.841-4.719-9.354-3.396-12.93 4.812-21.541 3.292-32.121-5.958-1.258-14.725-9.032-29.281-22.575-42.231-20.953-20.117-54.176-30.658-77.291-24.49-9.78 2.609-19.893 1.154-27.714-4.007-13.813-9.102-35.198-26.272-58.661-56.385-2.051-2.633-4.35-5.624-6.741-8.749l91.188-181.211a36.56 36.56 0 0 0 2.785-25.386l-4.033-15.954c-1.118-4.409-6.882-5.451-9.489-1.788-.921 1.289-68.714 96.194-121.982 168.855-53.45-72.382-121.167-166.469-122.089-167.751-2.671-3.709-8.392-2.535-9.484 1.821l-3.976 15.967a36.538 36.538 0 0 0 2.874 25.378l91.427 180.085a1310.379 1310.379 0 0 1-6.304 8.232c-23.354 30.196-44.682 47.444-58.453 56.595-7.806 5.184-17.903 6.68-27.709 4.105-23.12-6.08-56.307 4.565-77.193 24.757-25.48 24.519-32.19 56.422-7.437 82.104 23.922 24.695 62.873 14.3 88.059-10.004 17.336-16.791 20.818-31.937 23.614-44.108 2.162-9.396 3.866-16.819 11.111-23.443 26.856-24.558 70.496-43.146 95.067-52.339 24.17 8.824 69.416 27.538 97.094 52.669 5.685 5.158 9.489 12.719 10.716 21.286 2.448 17.064 11.054 33.449 24.253 46.142 31.019 29.715 76.084 34.59 96.327-1.143 17.471 4.877 31.918 1.72 46.298-9.986 2.947-2.391 3.68-6.367 1.793-9.667zM111.217 89.393a25.857 25.857 0 0 1-2.032-17.986l1.2-4.833c18.786 26.048 73.329 101.541 117.421 161.204-10.04 13.654-19.403 26.287-27.511 37.073L111.217 89.393zm20.444 275.291c-9.692 8.858-11.932 18.599-14.301 28.912-2.739 11.919-5.576 24.248-20.636 38.838-24.446 23.583-55.834 27.99-73.01 10.261-20.672-21.446-13.83-46.832 7.173-67.051 16.973-16.407 46.494-27.546 67.1-22.12 12.738 3.349 25.969 1.325 36.3-5.535 14.442-9.593 36.741-27.61 60.984-58.949 38.472-49.736 136.586-186.54 163.095-223.578l1.221 4.828a25.883 25.883 0 0 1-1.975 17.991L254.065 294.052a25.75 25.75 0 0 1-14.567 12.797c-21.742 7.621-75.773 28.512-107.837 57.835zm329.703 63.029a5.318 5.318 0 0 0-6.548 2.757c-15.79 33.428-54.896 27.598-81.475 2.146-11.324-10.89-19.005-25.459-21.083-39.971-1.58-11.017-6.584-20.842-14.104-27.66-25.135-22.821-63.564-40.396-89.582-50.605a36.304 36.304 0 0 0 15.003-15.545l7.041-13.992c1.27 1.648 2.497 3.235 3.659 4.726 24.357 31.251 46.724 49.187 61.197 58.729 10.357 6.829 23.578 8.798 36.32 5.405 19.467-5.189 48.985 4.417 67.184 21.889 12.223 11.685 18.947 24.568 19.446 37.261a5.3 5.3 0 0 0 1.699 3.692c8.912 8.258 17.29 12.441 26.555 12.849-7.653 2.253-15.708 1.632-25.312-1.681z"/><path fill="#fff" d="M374.204 372.975c-11.708 12.209-4.299 36.663 9.094 49.497 14.347 13.739 36.679 20.663 49.837 6.977 12.722-13.288 10.809-30.349-5.129-45.648-14.302-13.706-43.095-22.037-53.802-10.826zm51.25 49.105c-7.421 7.722-22.377 4.591-34.798-7.294-13.095-12.552-13.43-29.594-8.767-34.447 0-.003 0-.003.005-.005 5.771-6.04 28.702 1.527 38.747 11.147 8.108 7.785 15.524 19.413 4.813 30.599zM41.871 383.826c-15.876 15.346-17.726 32.415-4.953 45.664 13.188 13.625 35.445 6.688 49.806-7.159 13.684-13.207 20.433-37.608 8.918-49.53-11.576-11.991-40.849-1.437-53.77 11.025zm37.464 30.846c-12.368 11.929-27.325 15.117-34.76 7.424-10.758-11.155-3.384-22.806 4.692-30.614 14.33-13.827 35.076-15.048 38.721-11.287 4.717 4.883 4.338 21.948-8.653 34.477zm173.96-140.586c0-8.754-7.12-15.876-15.876-15.876s-15.876 7.122-15.876 15.876c0 8.788 7.12 15.938 15.876 15.938s15.876-7.15 15.876-15.938zm-15.876 5.296c-2.884 0-5.233-2.375-5.233-5.296 0-2.934 2.297-5.233 5.233-5.233 2.936 0 5.233 2.3 5.233 5.233 0 2.921-2.349 5.296-5.233 5.296z"/></svg>