<svg xmlns="http://www.w3.org/2000/svg" width="512" height="512" fill="none"><path fill="#fff" d="M417.796 348.663c-101.924-27.835-96.259-25.46-100.69-27.865 17.322-27.583 28.827-64.706 33.871-100.058 11.847-4.98 21.373-25.951 23.332-37.789 0-.008.003-.016.003-.023 3.216-19.991-8.132-31.833-20.703-31.361 5.731-34.557 16.338-66.467-2.212-90.12 6.275-12.536 5.945-26.781-.993-42.405C341.798-.313 317.293-4.93 300.557 7.45c-8.715 6.43-20.982 10.245-36.497 11.339-40.436 3.128-78.752 8.728-103.138 42.382-16.638 22.434-17.678 41.872-3.57 90.456-14.228.765-21.365 15.495-18.82 31.322 1.914 11.566 11.265 32.226 22.442 37.443 5.076 35.865 16.826 73.562 34.54 101.328-2.074.893 5.29-1.171-101.25 26.913-39.078 9.666-60.6 30.877-60.6 59.721V479.8c0 17.438 14.187 31.625 31.627 31.625h381.416c17.44 0 31.628-14.187 31.628-31.625v-71.445c.001-28.785-21.537-49.993-60.539-59.692zm-32.386 43.008h-25.394v-47.597l25.394 6.857v40.74zm-21.603-210.448c-1.122 6.774-5.73 17.84-11.07 24.609 1.431-15.571 1.512-30.387.197-43.525 9.224-1.259 12.369 9.592 10.873 18.916zM169.505 67.466c21.782-30.061 56.081-35.024 95.34-38.061 17.523-1.237 31.664-5.742 42.037-13.395 11.37-8.404 28.011-5.665 33.795 7.353 6.156 13.86 6.075 25.615-.249 35.938a5.322 5.322 0 0 0 .608 6.369c16.411 17.964 9.694 42.231 3.729 74.459-15.247-34.176-27.782-54.197-41.696-50.583-36.596 9.468-57.705 9.47-94.124.003-15.819-4.116-33.028 28.405-43.302 52.329-11.772-42.754-8.969-57.112 3.862-74.412zm171.814 91.133c-13.185 36.772-25.472 61.514-39.702 79.827-23.019 29.665-68.195 29.69-91.237-.003-14.287-18.387-26.616-43.245-39.864-80.273 12.56-32.366 29.328-59.976 35.746-58.301 38.03 9.884 61.27 9.884 99.482 0 10.052-2.535 33.409 54.323 35.575 58.75zm-192.281 22.64c-1.404-8.737 1.194-19.46 10.032-18.965-1.281 12.775-1.256 27.128.062 42.232-4.917-6.819-9.047-16.931-10.094-23.267zm52.936 63.714c27.275 35.146 80.746 35.185 108.048.003 11.953-15.385 22.523-34.821 33.223-61.363-.63 63.589-32.038 168.892-87.246 169.043-56.464-.154-86.643-108.183-87.246-169.043 10.701 26.542 21.272 45.978 33.221 61.36zm-.383 85.589c13.707 18.317 31.612 32.679 54.396 32.737h.026c23.083-.058 41.362-14.908 55.131-33.658 6.442 3.841 8.765 3.209 38.229 11.559v50.491H162.627V341.62c33.894-9.249 33.13-8.09 38.964-11.078zm-75.001 20.576 25.394-6.673v47.226H126.59v-40.553zM44.307 479.8v-71.445c0-31.669 32.901-44.539 52.591-49.411l19.049-5.021v37.747h-9.936c-14.538 0-26.366 11.828-26.366 26.366v82.745H65.292c-11.57.001-20.985-9.41-20.985-20.981zm45.981 20.982v-82.745c0-8.671 7.052-15.723 15.723-15.723h299.978c8.671 0 15.723 7.052 15.723 15.723v82.745H90.288zM467.693 479.8c0 11.571-9.414 20.982-20.985 20.982h-14.353v-82.745c0-14.538-11.828-26.366-26.366-26.366h-9.936v-37.866l19.069 5.158c19.633 4.885 52.57 17.794 52.57 49.393V479.8h.001z"/></svg>