<svg xmlns="http://www.w3.org/2000/svg" width="512" height="512" fill="none"><path fill="#fff" d="M260.176 240.054H148.739a5.321 5.321 0 0 0 0 10.642h111.437a5.32 5.32 0 0 0 5.319-5.321 5.32 5.32 0 0 0-5.319-5.321zm0 39.939H148.739a5.321 5.321 0 0 0 0 10.643h111.437a5.32 5.32 0 0 0 5.319-5.322 5.32 5.32 0 0 0-5.319-5.321zm0 39.938H148.739a5.321 5.321 0 0 0 0 10.643h111.437a5.32 5.32 0 0 0 5.319-5.322 5.319 5.319 0 0 0-5.319-5.321zm0 39.937H148.739a5.321 5.321 0 0 0 0 10.643h111.437a5.32 5.32 0 0 0 5.319-5.322 5.319 5.319 0 0 0-5.319-5.321z"/><path fill="#fff" d="M384.47 461.849c3.217-4.591 4.765-10.095 4.391-15.824-.826-12.607-11.381-22.562-24.269-23.12a24.67 24.67 0 0 0 4.464-14.179c0-13.683-11.121-24.817-24.794-24.817l-6.735-.068c-12.332-6.179-20.486-20.946-20.288-36.741.09-6.938-5.092-12.461-12.181-12.882V122.385c0-12.792-10.409-23.201-23.198-23.201h-11.397v-12.61c0-10.851-8.829-19.678-19.68-19.678h-2.414V53.669c0-4.467 3.635-8.102 8.102-8.102h28.58c12.488 0 22.783-9.333 23.427-21.247.715-13.057-9.648-23.757-22.466-23.757h-73.113c-29.85 0-54.137 24.287-54.137 54.137v12.194h-2.414c-10.851 0-19.678 8.827-19.678 19.678v12.61h-9.614c-12.792 0-23.201 10.409-23.201 23.201v365.8c0 12.823 10.409 23.253 23.201 23.253h255.642c13.423 0 24.581-10.188 25.397-23.193.892-14.205-10.059-25.773-23.625-26.394zM169.404 54.701c0-23.983 19.511-43.494 43.494-43.494h73.113a11.842 11.842 0 0 1 11.843 12.535c-.338 6.166-6.08 11.183-12.805 11.183h-28.58c-10.336 0-18.745 8.408-18.745 18.745v13.226h-68.322V54.701h.002zm-22.091 31.872c0-4.981 4.053-9.035 9.035-9.035h94.436c4.984 0 9.037 4.053 9.037 9.035v12.579H147.313V86.573zm137.789 296.215c.054.612-.482 1.12-1.096 1.12-15.128 0-26.977 13.594-24.455 28.868H114.498V197.788h179.917V339.06c-5.083 6.59-10.916 25.421-9.313 43.728zM127.056 109.826H281.86c6.922 0 12.555 5.633 12.555 12.558v64.762H114.498v-64.762c0-6.925 5.633-12.558 12.558-12.558zm-12.558 378.357v-64.765h145.367c-11.096 2.147-19.719 11.272-20.457 22.606-.372 5.729 1.174 11.233 4.391 15.824-14.111.639-24.701 12.874-23.601 26.792.359 4.514 2.033 8.648 4.566 12.153h-97.708c-6.925 0-12.558-5.656-12.558-12.61zm282.974-.608c-.463 7.411-6.953 13.218-14.774 13.218H245.602c-7.717 0-14.216-5.709-14.793-12.995-.659-8.268 5.811-15.333 14.104-15.333h80.864a5.32 5.32 0 0 0 5.321-5.321 5.32 5.32 0 0 0-5.321-5.322h-61.628c-8.195 0-14.657-6.907-14.12-15.107.481-7.4 6.977-13.195 14.79-13.195h19.186a5.32 5.32 0 0 0 5.321-5.321 5.32 5.32 0 0 0-5.321-5.322c-7.806 0-14.156-6.35-14.156-14.153 0-7.816 6.35-14.174 14.156-14.174 6.87 0 12.299-5.887 11.698-12.693-1.091-12.49 1.278-24.9 6.855-35.881 1.003-1.974 4.07-1.245 4.038.987-.244 19.784 10.269 38.425 26.155 46.389 1.58.795 3.331 1.198 5.202 1.198h6.309c7.8 0 14.151 6.358 14.151 14.174 0 7.803-6.35 14.153-14.151 14.153h-27.189a5.321 5.321 0 1 0 0 10.643h46.376c7.811 0 14.307 5.797 14.79 13.195.26 3.968-1.086 7.743-3.788 10.627-2.708 2.889-6.376 4.48-10.331 4.48a5.321 5.321 0 1 0 0 10.643h19.233c8.128 0 14.639 6.83 14.12 15.107v.003h-.001z"/></svg>